<?xml version="1.0" encoding="UTF-8"?>
<svg width="1437px" height="486px" viewBox="0 0 1437 486" version="1.1" xmlns="http://www.w3.org/2000/svg" xmlns:xlink="http://www.w3.org/1999/xlink">
    <!-- Generator: Sketch 49.2 (51160) - http://www.bohemiancoding.com/sketch -->
    <title>D_Drive_Safety</title>
    <desc>Created with Sketch.</desc>
    <defs>
        <polygon id="path-1" points="0 486 1560 486 1560 0 0 0"></polygon>
    </defs>
    <g id="Allpages" stroke="none" stroke-width="1" fill="none" fill-rule="evenodd">
        <g id="driverOverview_global-D" transform="translate(0.000000, -2477.000000)">
            <g id="D_Drive_Safety" transform="translate(0.000000, 2477.000000)">
                <mask id="mask-2" fill="white">
                    <use xlink:href="#path-1"></use>
                </mask>
                <use id="Mask" fill="#F7F8FA" opacity="0" xlink:href="#path-1"></use>
                <g id="Illo/signUp/0822/d" mask="url(#mask-2)">
                    <g id="signUp_desktop">
                        <path d="M1357.38,486 L0.73,486 L1.27,0 L913,0 C1062.69155,-0.00369621851 1197.85217,89.5756118 1256.17,227.44 C1257.45667,230.473333 1258.7,233.536667 1259.9,236.63 C1259.94925,236.734168 1259.99265,236.841 1260.03,236.95 L1266.29,252.95 L1267.49,256.01 L1278.28,283.61 L1279.45,286.61 L1288.35,309.37 L1288.8,310.51 L1288.96,310.92 L1296.06,329.1 L1296.18,329.4 L1302.73,346.12 L1303.12,347.12 L1307.63,358.66 L1310.04,364.82 L1310.15,365.1 L1357.38,486 Z" id="Shape" fill="#F7F8FA" fill-rule="nonzero"></path>
                        <path d="M1142.46,486 L836.46,486 L819.16,443.42 L817.66,439.73 L799.19,394.23 C779,344.41 815.6,290 869.34,290 L1062.88,290 L1142.46,486 Z" id="Shape" fill="#FF7D49" fill-rule="nonzero"></path>
                        <path d="M1143.47,216.78 L1138.07,219.39 C1136.63725,220.086908 1135.89622,221.698765 1136.3,223.24 L1143.04,260.11 C1144.12,265.97 1140.04,271.3 1134.09,271.26 L1111.92,271.26 L1107.59,290 L1106.85,293.18 L1095.01,344.18 L1014.59,344.18 L1025.12,293.18 L1025.78,290 L1029.24,273.27 C1029.28876,273.048821 1029.32548,272.825159 1029.35,272.6 C1029.43735,271.990717 1029.45747,271.373679 1029.41,270.76 C1029.26875,267.398802 1027.3694,264.359855 1024.41,262.76 C1022.94,261.97 1021.5,261.11 1020.09,260.21 C998.583739,246.476211 986.011962,222.334589 987.09,196.84 C988.72,159.26 1020.47,129.13 1058.09,128.66 C1064.29378,128.582339 1070.48926,129.138559 1076.58,130.32 C1081.51809,131.271135 1086.35841,132.673689 1091.04,134.51 C1095.33563,136.179549 1099.45567,138.269715 1103.34,140.75 C1104.53,141.5 1105.64,142.27 1106.69,143.05 C1112.77219,147.44128 1117.72191,153.217089 1121.13,159.9 C1122.36739,162.237064 1123.48223,164.63698 1124.47,167.09 C1125.68,170.02 1128.11,175.09 1126.33,181.22 C1123.99,189.31 1127.78,188.54 1133.33,193.59 C1138.88,198.64 1147.18,207.81 1147.18,207.81 C1150.69,212.81 1146.89,215.84 1143.47,216.78 Z" id="Shape" fill="#99644D" fill-rule="nonzero"></path>
                        <path d="M1109.9,146.15 L1100.16,148.74 C1097.72554,149.388464 1095.69599,151.068355 1094.60404,153.338764 C1093.51209,155.609174 1093.46678,158.243379 1094.48,160.55 L1098.86,170.55 C1100.33457,173.907604 1099.46938,177.833317 1096.72,180.26 L1095.04,181.74 C1092.5827,183.912349 1091.40904,187.191784 1091.93,190.43 L1096.84,221.09 L1090.05,241.24 L1079.94,194.24 C1078.49167,188.408593 1073.63374,184.049926 1067.68,183.24 C1065.86684,183.008314 1064.0266,183.109985 1062.25,183.54 C1057.13877,184.78218 1053.0878,188.672585 1051.64003,193.729427 C1050.19227,198.786268 1051.57058,204.23107 1055.25,207.99 L1061.25,214.14 L1064.12,217.07 C1068.27345,221.329334 1069.45696,227.669015 1067.12,233.14 L1053.39,265.32 C1051.96634,268.662816 1048.68335,270.831791 1045.05,270.83 L1029.4,270.83 C1029.25875,267.468802 1027.3594,264.429855 1024.4,262.83 C1023.53,262.36 1022.67,261.83 1021.83,261.35 C1021.37,261.09 1020.93,260.82 1020.48,260.53 L1020.08,260.28 C1019.24,259.75 1018.42,259.19 1017.61,258.62 L1017.19,258.32 C1016.42333,257.773333 1015.67,257.216667 1014.93,256.65 L1014.83,256.58 C996.393913,242.409002 986.038027,220.129289 987.09,196.9 C988.02,175.57 999.28,156.46 1015.73,143.9 C1015.73,143.9 1015.73,143.9 1015.73,143.9 C1028.42628,134.075477 1043.94947,128.60186 1060,128.29 C1066.20378,128.212269 1072.39927,128.76849 1078.49,129.95 C1083.45218,130.801388 1088.31419,132.15846 1093,134 C1094.46,134.61 1095.8,135.21 1097,135.81 C1104.24,139.3 1107.79,142.45 1110.2,145.24 C1110.57,145.82 1110.48,146.15 1109.9,146.15 Z" id="Shape" fill="#000000" fill-rule="nonzero"></path>
                        <path d="M1136.47,223.25 L1123.47,232.02 L1123.28,232.15 C1113.62,238.58 1098.81,235.15 1096.82,221.06 L1086.3,222.33 L1094.1,262.82 C1094.98642,267.710142 1099.25018,271.261875 1104.22,271.25 L1134.22,271.25 C1139.57709,271.177857 1144.53366,268.399274 1147.3904,263.866864 C1150.24713,259.334454 1150.61579,253.664161 1148.37,248.8 L1136.47,223.25 Z" id="Shape" fill="#000000" fill-rule="nonzero"></path>
                        <path d="M1428,282.34 C1431,283.98 1432.49,287.95 1431.42,291.99 L1416.13,336.99 L1390,352.64 L1425.14,283.48 C1425.36222,282.944627 1425.7912,282.521666 1426.32966,282.307035 C1426.86812,282.092405 1427.47043,282.104291 1428,282.34 Z" id="Shape" fill="#C78982" fill-rule="nonzero"></path>
                        <path d="M1415.37,260.89 C1418.49,262.21 1420.42,265.99 1419.78,270.12 L1403.47,335.83 L1384.36,333.71 L1412.63,262.33 C1412.79072,261.767852 1413.17445,261.295941 1413.692,261.023944 C1414.20955,260.751946 1414.81585,260.703549 1415.37,260.89 Z" id="Shape" fill="#C78982" fill-rule="nonzero"></path>
                        <path d="M1395.66,240.47 C1398.98,241.34 1401.46,244.83 1401.42,249.06 L1395.75,313.06 L1375.94,320.44 L1393.13,242.35 C1393.20069,241.757988 1393.51186,241.221141 1393.99042,240.865532 C1394.46897,240.509923 1395.07277,240.366882 1395.66,240.47 Z" id="Shape" fill="#C78982" fill-rule="nonzero"></path>
                        <path d="M1372.23,240.73 C1375.8,240.99 1379.01,244.11 1379.77,248.45 L1385.6,312.05 L1402.49,316.12 L1372.65,346.54 L1369.85,340.1 C1367.31614,334.278678 1366.11357,327.965186 1366.33,321.62 L1370,243.1 C1369.97008,242.486965 1370.19078,241.888126 1370.61138,241.441127 C1371.03197,240.994128 1371.61628,240.737418 1372.23,240.73 Z" id="Shape" fill="#C78982" fill-rule="nonzero"></path>
                        <path d="M1384.24,326.31 L1422.73,317.67 L1420.73,323.57 C1420.10454,325.457776 1420.28544,327.519945 1421.23,329.27 L1423.57,333.6 C1428.68983,342.34329 1430.53301,352.622545 1428.77,362.6 L1426.12,377.6 L1396.57,383.83 L1376.21,337.17 C1376.69,336.32 1384.24,326.31 1384.24,326.31 Z" id="Shape" fill="#C78982" fill-rule="nonzero"></path>
                        <path d="M1368.16,291.2 L1372.32,301.31 C1373.06783,303.906363 1373.31555,306.621167 1373.05,309.31 L1370.78,330.93 C1370.1543,336.901858 1371.08445,342.934012 1373.48,348.44 L1380.05,363.54 L1396.63,383.81 L1420.63,356.92 L1420.39,354.75 C1418.87603,340.960493 1409.21397,329.436254 1395.9,325.54 L1392.69,318.19 C1391.59576,315.700029 1391.11233,312.98463 1391.28,310.27 C1391.6151,305.541215 1390.81985,300.80058 1388.96,296.44 L1387.7,293.55 C1384.8991,287.142123 1377.88941,283.683726 1371.1,285.36 L1371.05,285.36 C1369.83971,285.674486 1368.82567,286.499115 1368.27104,287.619875 C1367.71642,288.740634 1367.6759,290.047023 1368.16,291.2 Z" id="Shape" fill="#99644D" fill-rule="nonzero"></path>
                        <path d="M1429.68,357.75 L1421.46,407.24 L1376.1,403.34 L1380.93,385.59 C1383.42638,378.408025 1383.10836,370.546856 1380.04,363.59 L1395.04,357.05 L1420.57,356.96 L1420.4,361.72 C1420.35897,362.8746 1420.79199,363.995739 1421.59848,364.823002 C1422.40497,365.650264 1423.51473,366.111654 1424.67,366.1 C1426.70378,366.078454 1428.4343,364.612547 1428.79,362.61 L1429.68,357.75 Z" id="Shape" fill="#99644D" fill-rule="nonzero"></path>
                        <path d="M1420.21,368.13 L1421.01,345.75" id="Shape"></path>
                        <path d="M1421.35,410.88 L1411,486 L1352,486 L1382.3,379.6 L1406.98,387.88 C1415.26124,390.653204 1421.00418,398.208659 1421.46,406.93 C1421.54321,408.247278 1421.50639,409.569394 1421.35,410.88 Z" id="Shape" fill="#000000" fill-rule="nonzero"></path>
                        <path d="M1091.1,247.12 L1066.85,219.74 L1058.85,211.6 L1055.23,207.91 C1050.9026,203.497743 1049.812,196.843297 1052.5046,191.280532 C1055.1972,185.717767 1061.09296,182.444997 1067.23812,183.101876 C1073.38327,183.758755 1078.45405,188.203781 1079.91,194.21 L1091.1,247.12 Z" id="Shape" fill="#99644D" fill-rule="nonzero"></path>
                        <path d="M1409.87,421.75 L1383.73,486.1 L1339.55,486.1 L1381.17,383.66 L1384.24,383.66 C1393.44844,383.66101 1402.05301,388.242931 1407.19375,395.882837 C1412.33449,403.522743 1413.33773,413.219451 1409.87,421.75 Z" id="Shape" fill="#000000" fill-rule="nonzero"></path>
                        <path d="M1210.82,368.4 L1127.64,349.88 C1119.15578,348.38435 1111.65916,343.467442 1106.90705,336.281595 C1102.15493,329.095748 1100.56505,320.272625 1102.51,311.88 L1106.85,293.2 L1107.59,290.02 L1025.77,290.02 L1025.11,293.2 L1021.11,312.35 C1017.04462,332.024411 1002.76725,348.022083 983.68,354.29 L912.17,377.77 C897.75953,382.501908 885.958938,393.001777 879.583772,406.764402 C873.208605,420.527027 872.83062,436.318111 878.54,450.37 L893.06,486 L1284.8,486 L1249.8,400 C1243.11313,383.458534 1228.38694,371.520425 1210.82,368.4 Z" id="Shape" fill="#000000" fill-rule="nonzero"></path>
                        <polygon id="Shape" fill="#F6F6F7" fill-rule="nonzero" points="1241.31 306.54 1203.31 363.98 1124.34 483.35 1075.65 483.35 1168.82 348.19 1197.77 306.19"></polygon>
                        <path d="M1250.68,486.11 C1249.68,483.32 1248.68,480.54 1247.61,477.82 C1222.54704,415.367153 1161.45875,374.934887 1094.17776,376.268416 C1026.89677,377.601946 967.458578,420.423082 944.89,483.82 C944.62,484.6 944.35,485.38 944.09,486.16 L973.83,486.16 C974.16,485.38 974.51,484.6 974.83,483.82 C995.577359,436.918174 1041.27496,405.972207 1092.52718,404.116614 C1143.77941,402.261022 1191.59524,429.821326 1215.68,475.1 C1217.2,477.95 1218.62,480.85 1219.92,483.82 C1220.27,484.6 1220.61,485.38 1220.92,486.16 L1250.63,486.16 L1250.68,486.11 Z" id="Shape" fill="#FFFFFF" fill-rule="nonzero"></path>
                        <path d="M1471.8,487.13 L723,487.06 L769.45,486.44 C777.45,486.333333 785.433333,486.133333 793.4,485.84 C809.4,485.266667 825.29,484.323333 841.07,483.01 C847.563333,482.476667 854.036667,481.876667 860.49,481.21 C879.876667,479.21 899.006667,476.676667 917.88,473.61 L918.2,473.56 C924.546667,472.52 930.856667,471.42 937.13,470.26 C940.883333,469.593333 944.626667,468.876667 948.36,468.11 L949.23,467.94 C960.436667,465.726667 971.77,463.763333 983.23,462.05 L984.96,461.79 L987.62,461.4 C989.426667,461.14 991.236667,460.886667 993.05,460.64 C998.623333,459.873333 1004.22333,459.166667 1009.85,458.52 C1071.5313,451.446257 1133.80094,451.134406 1195.55,457.59 C1208.53667,458.923333 1221.41333,460.59 1234.18,462.59 C1239.58,463.423333 1244.95667,464.313333 1250.31,465.26 C1252.21,465.593333 1254.11,465.926667 1256.01,466.26 L1276,470 C1284.66667,471.6 1293.42,473.086667 1302.26,474.46 C1308.64667,475.446667 1315.07,476.376667 1321.53,477.25 C1333.03,478.796667 1344.62333,480.13 1356.31,481.25 C1361.57,481.77 1366.84333,482.246667 1372.13,482.68 C1384.22333,483.68 1396.37667,484.463333 1408.59,485.03 C1414.64333,485.316667 1420.70333,485.546667 1426.77,485.72 L1428.48,485.72 L1471.8,487.13 Z" id="Shape" fill="#FFFFFF" fill-rule="nonzero"></path>
                    </g>
                </g>
            </g>
        </g>
    </g>
</svg>